<svg xmlns="http://www.w3.org/2000/svg" width="38" height="38" viewBox="0 0 38 38" fill="none">
  <path d="M17.4246 8.24718V25.933L9.69791 18.2063C9.08041 17.5888 8.06708 17.5888 7.44958 18.2063C6.83208 18.8238 6.83208 19.8213 7.44958 20.4388L17.8837 30.873C18.5012 31.4905 19.4987 31.4905 20.1162 30.873L30.5504 20.4388C31.1679 19.8213 31.1679 18.8238 30.5504 18.2063C30.2546 17.9099 29.853 17.7432 29.4342 17.7432C29.0153 17.7432 28.6137 17.9099 28.3179 18.2063L20.5912 25.933V8.24718C20.5912 7.37635 19.8787 6.66385 19.0079 6.66385C18.1371 6.66385 17.4246 7.37635 17.4246 8.24718Z" fill="#00A966"/>
</svg>